# xmcd
#
# Track frame offsets: 
#        150
#        16825
#        36525
#        52100
#        64725
#        83745
#        105643
#        116861
#        141662
#        171858
#
# Disc length: 2659 seconds
#
# Revision: 1
# Processed by: cddbd v1.5.2PL0 Copyright (c) Steve Scherf et al.
# Submitted via: ExactAudioCopyFreeDBPlugin 1.0
#
DISCID=910a610a
DTITLE=Botanica - Americanundone
DYEAR=2009
DGENRE=Rock
TTITLE0=Billboard Jesus
TTITLE1=Concrete Shoes
TTITLE2=La Valse Magnetique
TTITLE3=Shira and Safia
TTITLE4=Sex Offender
TTITLE5=I Desire
TTITLE6=Someone Else Again
TTITLE7=Swimming In The Ocean At Night
TTITLE8=The Truth Fish
TTITLE9=How
EXTD=
EXTT0=
EXTT1=
EXTT2=
EXTT3=
EXTT4=
EXTT5=
EXTT6=
EXTT7=
EXTT8=
EXTT9=
PLAYORDER=
